<svg width="230" height="48" viewBox="0 0 230 48" fill="none" xmlns="http://www.w3.org/2000/svg">
<g clip-path="url(#clip0)">
<path d="M0.290955 38.0487C0.145478 37.9024 0 37.6097 0 37.1707V11.7073C0 11.4146 0.145478 11.1219 0.290955 10.8292C0.58191 10.5365 0.872865 10.5365 1.16382 10.5365H3.63694C3.92789 10.5365 4.21885 10.6829 4.5098 10.8292C4.80076 10.9756 4.94624 11.2682 4.94624 11.7073V14.0487C5.96458 12.7317 7.27388 11.7073 8.72865 10.9756C10.1834 10.2439 11.9292 9.95117 13.9658 9.95117C17.4573 9.95117 20.0759 11.1219 21.9671 13.317C23.8583 15.5121 24.8767 18.439 24.8767 22.0975V37.317C24.8767 37.6097 24.7312 37.9024 24.5857 38.1951C24.4402 38.4878 24.0038 38.4878 23.7128 38.4878H21.0942C20.8033 38.4878 20.5123 38.3414 20.2214 38.1951C19.9304 37.9024 19.9304 37.6097 19.9304 37.317V22.2439C19.9304 19.7561 19.3485 17.7073 18.0392 16.2439C16.7299 14.7804 14.9842 14.1951 12.6565 14.1951C10.4744 14.1951 8.58317 14.9268 7.27388 16.3902C5.96458 17.8536 5.23719 19.7561 5.23719 22.2439V37.1707C5.23719 37.4634 5.09171 37.7561 4.94624 38.0487C4.65528 38.3414 4.36433 38.3414 4.07337 38.3414H1.16382C0.872865 38.4878 0.58191 38.3414 0.290955 38.0487Z" fill="#252525"/>
<path d="M34.7691 35.561C32.587 33.2196 31.4232 30.1464 31.1322 26.1952V24.2927V22.5366C31.4232 18.5854 32.587 15.5122 34.7691 13.3171C36.9513 10.9757 39.8609 9.80493 43.4978 9.80493C47.4257 9.80493 50.4807 11.122 52.6629 13.6098C54.845 16.0976 55.8634 19.6098 55.8634 23.8537V24.8781C55.8634 25.1708 55.7179 25.4635 55.5724 25.7562C55.2815 26.0488 54.9905 26.0488 54.6996 26.0488H36.2239V26.4879C36.3694 28.8293 37.0968 30.8781 38.4061 32.4879C39.7154 34.0976 41.4611 34.9757 43.6433 34.9757C45.2435 34.9757 46.6983 34.683 47.7166 33.9513C48.735 33.2196 49.6079 32.6342 50.0443 31.9025C50.3352 31.4635 50.6262 31.1708 50.7717 31.1708C50.9171 31.0244 51.2081 31.0244 51.6445 31.0244H54.2631C54.5541 31.0244 54.845 31.1708 55.136 31.3171C55.2815 31.4635 55.4269 31.7562 55.4269 32.0488C55.4269 32.7805 54.9905 33.8049 53.9722 34.9757C52.9538 36.1464 51.6445 37.0244 49.8988 37.9025C48.1531 38.7805 46.1164 39.0732 43.7887 39.0732C40.0063 39.0732 36.9513 37.9025 34.7691 35.561ZM50.9171 22.3903V22.244C50.9171 19.7562 50.1898 17.7074 48.8805 16.244C47.5712 14.6342 45.8254 13.7562 43.6433 13.7562C41.4611 13.7562 39.5699 14.4879 38.2606 16.0976C36.9513 17.7074 36.3694 19.7562 36.3694 22.0976V22.244H50.9171V22.3903Z" fill="#252525"/>
<path d="M68.0835 38.1951C67.7925 38.0488 67.6471 37.6098 67.5016 37.1707L59.7913 12.1464L59.6458 11.561C59.6458 11.2683 59.7913 10.9756 59.9367 10.6829C60.2277 10.5366 60.3732 10.3903 60.6641 10.3903H62.9918C63.2827 10.3903 63.5737 10.5366 63.8646 10.6829C64.1556 10.8293 64.3011 11.122 64.3011 11.2683L70.2656 31.6098L76.6667 11.561C76.6667 11.2683 76.9576 10.9756 77.1031 10.8293C77.394 10.5366 77.685 10.5366 78.1214 10.5366H80.0126C80.4491 10.5366 80.74 10.6829 81.031 10.8293C81.3219 11.122 81.4674 11.2683 81.4674 11.561L87.8684 31.6098L93.833 11.2683C93.833 11.122 93.9785 10.8293 94.2694 10.6829C94.5604 10.5366 94.8514 10.3903 95.1423 10.3903H97.6154C97.9064 10.3903 98.1973 10.5366 98.3428 10.6829C98.4883 10.8293 98.6338 11.122 98.6338 11.561L98.4883 12.1464L90.9235 37.1707C90.778 37.6098 90.487 38.0488 90.3415 38.1951C90.0506 38.3415 89.7596 38.4878 89.1777 38.4878H87.2865C86.2682 38.4878 85.6863 38.0488 85.5408 37.1707L79.2853 17.8537L73.0297 37.1707C72.7388 38.0488 72.1569 38.4878 71.284 38.4878H69.2473C68.6654 38.4878 68.3744 38.3415 68.0835 38.1951Z" fill="#252525"/>
<path d="M107.362 37.7561C105.617 36.8781 104.453 36 103.58 34.9756C102.707 33.9513 102.271 33.0732 102.271 32.3415C102.271 32.0488 102.416 31.7561 102.707 31.4634C102.998 31.3171 103.289 31.1708 103.58 31.1708H106.053C106.344 31.1708 106.781 31.3171 107.071 31.7561C107.944 32.7805 108.817 33.5122 109.836 34.0976C110.854 34.683 112.163 34.9756 113.909 34.9756C115.8 34.9756 117.255 34.5366 118.419 33.8049C119.583 33.0732 120.164 32.0488 120.164 30.7317C120.164 29.8537 119.873 29.122 119.437 28.5366C119.001 27.9513 118.128 27.5122 116.964 27.0732C115.8 26.6342 114.054 26.1952 111.727 25.7561C108.672 25.0244 106.344 24.1464 105.18 22.8293C103.871 21.5122 103.289 19.9025 103.289 17.8537C103.289 16.5366 103.725 15.2195 104.453 13.9025C105.326 12.7317 106.49 11.7074 107.944 10.8293C109.399 9.95125 111.436 9.65857 113.618 9.65857C115.946 9.65857 117.837 10.0976 119.437 10.8293C121.037 11.561 122.201 12.4391 123.074 13.4634C123.947 14.4878 124.238 15.3659 124.238 16.0976C124.238 16.3903 124.092 16.683 123.947 16.9756C123.656 17.122 123.51 17.2683 123.074 17.2683H120.892C120.455 17.2683 120.164 17.122 119.873 16.683C119.292 15.9513 118.855 15.5122 118.419 15.0732C117.982 14.6342 117.4 14.3415 116.673 14.0488C115.946 13.7561 114.927 13.6098 113.763 13.6098C112.018 13.6098 110.708 14.0488 109.836 14.7805C108.963 15.5122 108.381 16.5366 108.381 17.7074C108.381 18.4391 108.526 19.1708 108.963 19.6098C109.399 20.1952 110.126 20.6342 111.29 21.0732C112.454 21.5122 114.054 21.9513 116.237 22.3903C119.583 23.122 122.056 24.1464 123.51 25.4634C124.965 26.7805 125.693 28.5366 125.693 30.5854C125.693 32.1952 125.256 33.5122 124.383 34.8293C123.51 36.1464 122.201 37.0244 120.455 37.7561C118.71 38.4878 116.673 38.7805 114.2 38.7805C111.145 39.0732 109.108 38.6342 107.362 37.7561Z" fill="#252525"/>
<path d="M157.116 10.3903H151.006C150.278 10.3903 149.696 10.8293 149.405 11.561L143.295 28.0976L137.331 11.561C137.04 10.8293 136.603 10.3903 135.731 10.3903H129.62C129.33 10.3903 129.039 10.5366 128.748 10.6829C128.457 10.9756 128.457 11.2683 128.457 11.561L128.602 12L138.786 37.0244C138.931 37.4634 139.222 37.7561 139.513 38.0488C139.804 38.3415 140.095 38.3415 140.677 38.3415H146.35C146.787 38.3415 147.223 38.1951 147.514 38.0488C147.805 37.9025 148.096 37.4634 148.242 37.0244L158.425 12L158.57 11.561C158.57 11.2683 158.425 10.9756 158.134 10.6829C157.698 10.5366 157.407 10.3903 157.116 10.3903Z" fill="#252525"/>
<path d="M201.777 0.146362H195.522C195.231 0.146362 194.794 0.292704 194.649 0.585387C194.358 0.87807 194.213 1.17075 194.213 1.60978V37.1708C194.213 37.4634 194.358 37.9025 194.649 38.0488C194.94 38.1951 195.231 38.4878 195.522 38.4878H201.777C202.214 38.4878 202.505 38.3415 202.796 38.0488C203.087 37.7561 203.232 37.4634 203.232 37.0244V1.46344C203.232 1.02441 203.087 0.731728 202.796 0.439045C202.505 0.292704 202.214 0.146362 201.777 0.146362Z" fill="#252525"/>
<path d="M229.709 31.4634C229.418 31.1707 229.127 31.0244 228.691 31.0244H224.617C222.581 31.0244 221.562 29.7073 221.562 27.0732V17.561H228.254C228.691 17.561 228.982 17.4146 229.273 17.122C229.564 16.8293 229.709 16.5366 229.709 16.0976V11.7073C229.709 11.2683 229.564 10.9756 229.273 10.6829C228.982 10.3902 228.691 10.2439 228.254 10.2439H221.562V1.46341C221.562 1.02439 221.417 0.731707 221.126 0.439024C220.835 0.146341 220.544 0 220.108 0H213.852C213.561 0 213.125 0.146341 212.979 0.439024C212.688 0.731707 212.543 1.02439 212.543 1.46341V10.3902H208.324C207.887 10.3902 207.596 10.5366 207.305 10.8293C207.015 11.122 206.869 11.4146 206.869 11.8537V16.2439C206.869 16.6829 207.015 16.9756 207.305 17.2683C207.596 17.561 207.887 17.7073 208.324 17.7073H212.543V27.8049C212.543 34.8293 216.18 38.4878 223.599 38.4878H228.545C228.982 38.4878 229.273 38.3415 229.564 38.0488C229.854 37.7561 230 37.4634 230 37.1707V32.4878C230 32.0488 230 31.7561 229.709 31.4634Z" fill="#252525"/>
<path d="M161.189 31.0244C161.48 30 161.917 29.1219 162.207 28.2439C162.935 26.1951 163.662 24.1463 164.535 22.0975L168.027 13.317L171.663 17.7073C172.391 16.9756 173.409 16.6829 174.719 16.6829C175.155 16.6829 175.591 16.6829 176.028 16.8292C176.61 15.6585 177.192 14.6341 177.919 13.4634C178.501 12.5853 179.083 11.5609 179.519 10.6829C178.064 10.3902 176.464 10.0975 174.719 10.0975C170.5 10.0975 167.008 11.1219 164.535 13.317C162.062 15.5122 160.753 18.439 160.462 22.2439C160.462 22.6829 160.462 23.5609 160.462 24.7317C160.462 25.9024 160.462 26.6341 160.462 27.2195C160.462 28.3902 160.753 29.7073 161.189 31.0244Z" fill="#252525"/>
<path d="M187.812 17.2683C187.666 17.4147 187.666 17.7073 187.521 17.8537C186.357 20.7805 185.338 23.4147 184.175 26.0488C183.156 28.3903 181.992 31.0244 180.392 34.0976L178.21 38.6342C180.974 38.1951 183.156 37.1707 184.902 35.7073C187.23 33.6586 188.539 30.5854 188.83 26.7805C188.83 26.3415 188.83 25.4634 188.83 24.2927C188.83 23.122 188.83 22.3903 188.83 21.8049C188.684 20.3415 188.393 18.7317 187.812 17.2683Z" fill="#252525"/>
<path d="M168.608 38.1951C169.918 38.6341 171.373 38.9268 172.973 38.9268L170.354 35.1219C169.772 36.1463 169.19 37.1707 168.608 38.1951Z" fill="#252525"/>
<path d="M184.902 7.17065C184.466 7.75602 184.175 8.34138 183.738 8.92675C183.156 9.8048 182.72 10.5365 182.138 11.4146C181.41 12.4389 180.829 13.6097 180.247 14.6341C179.519 15.8048 178.937 16.9755 178.21 18.2926C177.628 19.4633 176.901 20.6341 176.319 21.8048C176.173 21.9511 176.173 22.0975 176.028 22.3902C175.446 23.5609 174.864 24.5853 174.428 25.756C173.846 25.0243 173.264 24.2926 172.682 23.7072C172.391 23.4146 172.1 22.9755 171.809 22.6828L170.063 20.4877L168.754 18.878L167.154 23.1219C166.426 25.1707 165.553 27.2194 164.826 29.2682C164.244 31.0243 163.662 32.7804 162.935 34.5365C162.789 34.8292 162.789 35.1219 162.644 35.4146C162.353 36.1463 162.207 37.0243 161.916 37.756C161.48 39.0731 161.044 40.3902 160.753 41.7072C160.462 42.7316 160.171 43.756 159.88 44.9268C159.589 45.9511 159.298 47.1219 159.152 48.1463C159.734 47.2682 160.462 46.3902 161.044 45.3658C161.626 44.4877 162.207 43.4633 162.789 42.5853C163.371 41.5609 163.953 40.6828 164.535 39.6585C164.972 38.7804 165.553 37.9024 165.99 37.1707L166.135 37.0243C167.154 35.1219 168.317 33.2194 169.336 31.317C169.627 30.878 169.918 30.2926 170.063 29.8536C170.936 31.1707 171.809 32.3414 172.682 33.6585L175.591 37.756L177.919 33.0731C179.228 30.4389 180.392 27.8048 181.556 25.1707C182.72 22.5365 183.884 19.756 184.902 17.1219C185.193 16.2438 185.629 15.3658 185.92 14.4877C186.357 13.4633 186.648 12.4389 186.939 11.4146C187.23 10.5365 187.521 9.8048 187.812 8.92675C188.248 7.46333 188.684 6.14626 189.121 4.68285C189.557 3.21943 189.848 1.75602 190.139 0.292603C189.121 1.46333 188.248 2.63407 187.375 3.8048C186.502 4.68285 185.629 5.99992 184.902 7.17065Z" fill="#F63C25"/>
</g>
<defs>
<clipPath id="clip0">
<rect width="230" height="48" fill="white"/>
</clipPath>
</defs>
</svg>
